name analog
datacolumns 19
datarows 23
range 0.4835 0.4945
endheader
time	ground_force_vx	ground_force_vy	ground_force_vz	ground_force_px	ground_force_py	ground_force_pz	l_ground_force_vx	l_ground_force_vy	l_ground_force_vz	l_ground_force_px	l_ground_force_py	l_ground_force_pz	ground_torque_x	ground_torque_y	ground_torque_z	l_ground_torque_x	l_ground_torque_y	l_ground_torque_z
0.4835	-0.0	-0.0	-0.0	-0.0	-0.0	-0.0	1.259678840637207	1.2364321947097778	-774.7677001953125	-0.0	-0.0	-0.0	-0.0	-0.0	-0.0	243359.796875	-4340.78515625	-1499.800048828125
0.484	-0.0	-0.0	-0.0	-0.0	-0.0	-0.0	0.7273765802383423	1.0953437089920044	-775.5343627929688	-0.0	-0.0	-0.0	-0.0	-0.0	-0.0	243552.59375	-4218.85400390625	-1672.2216796875
0.4845	-0.0	-0.0	-0.0	-0.0	-0.0	-0.0	0.6213711500167847	0.6534228920936584	-780.3538818359375	-0.0	-0.0	-0.0	-0.0	-0.0	-0.0	244518.84375	-4084.017822265625	-1779.3668212890625
0.485	-0.0	-0.0	-0.0	-0.0	-0.0	-0.0	0.9058995246887208	0.3883832097053528	-781.7482299804688	-0.0	-0.0	-0.0	-0.0	-0.0	-0.0	245022.671875	-3590.71044921875	-1873.9853515625
0.4855	-0.0	-0.0	-0.0	-0.0	-0.0	-0.0	-0.0351761057972908	0.7415953278541565	-782.5872192382812	-0.0	-0.0	-0.0	-0.0	-0.0	-0.0	245280.984375	-3328.607177734375	-1981.446044921875
0.486	-0.0	-0.0	-0.0	-0.0	-0.0	-0.0	-0.5849224925041199	0.5658249855041504	-781.8849487304688	-0.0	-0.0	-0.0	-0.0	-0.0	-0.0	245303.328125	-2847.812255859375	-2117.841064453125
0.4865	-0.0	-0.0	-0.0	-0.0	-0.0	-0.0	-1.47194242477417	0.5648229718208313	-783.078125	-0.0	-0.0	-0.0	-0.0	-0.0	-0.0	245040.171875	-2441.3505859375	-2498.542236328125
0.487	-0.0	-0.0	-0.0	-0.0	-0.0	-0.0	-1.987890601158142	0.4602936506271362	-782.453857421875	-0.0	-0.0	-0.0	-0.0	-0.0	-0.0	244754.5	-1970.9798583984373	-2712.84716796875
0.4875	-0.0	-0.0	-0.0	-0.0	-0.0	-0.0	-1.880374789237976	0.2649650573730469	-781.6073608398438	-0.0	-0.0	-0.0	-0.0	-0.0	-0.0	244764.640625	-1976.7652587890625	-2801.85009765625
0.488	-0.0	-0.0	-0.0	-0.0	-0.0	-0.0	-1.9151893854141235	0.0709771066904068	-783.9888916015625	-0.0	-0.0	-0.0	-0.0	-0.0	-0.0	244947.953125	-1967.75048828125	-2618.141845703125
0.4885	-0.0	-0.0	-0.0	-0.0	-0.0	-0.0	-1.6872981786727903	0.0537071824073791	-784.194580078125	-0.0	-0.0	-0.0	-0.0	-0.0	-0.0	245227.265625	-1684.87890625	-2404.5732421875
0.489	-0.0	-0.0	-0.0	-0.0	-0.0	-0.0	-0.5649759769439697	-0.0172699280083179	-785.09765625	-0.0	-0.0	-0.0	-0.0	-0.0	-0.0	245363.8125	-1764.1829833984375	-2053.6875
0.4895	-0.0	-0.0	-0.0	-0.0	-0.0	-0.0	0.2488102912902832	-0.0883216857910156	-785.1737670898438	-0.0	-0.0	-0.0	-0.0	-0.0	-0.0	245408.015625	-1486.5386962890625	-1797.7672119140625
0.49	-0.0	-0.0	-0.0	-0.0	-0.0	-0.0	0.9953911304473876	-0.439330518245697	-783.9813842773438	-0.0	-0.0	-0.0	-0.0	-0.0	-0.0	244990.234375	-1456.991455078125	-1441.382080078125
0.4905	-0.0	-0.0	-0.0	-0.0	-0.0	-0.0	0.9043549299240112	-0.9175597429275512	-783.2828369140625	-0.0	-0.0	-0.0	-0.0	-0.0	-0.0	244302.796875	-891.8640747070312	-1358.368408203125
0.491	-0.0	-0.0	-0.0	-0.0	-0.0	-0.0	0.766569972038269	-1.3960027694702148	-782.86572265625	-0.0	-0.0	-0.0	-0.0	-0.0	-0.0	244107.15625	-455.1177062988281	-1548.09765625
0.4915	-0.0	-0.0	-0.0	-0.0	-0.0	-0.0	-0.4063897728919983	-2.102613687515259	-781.198486328125	-0.0	-0.0	-0.0	-0.0	-0.0	-0.0	243244.453125	-69.83934020996094	-1785.4747314453125
0.492	-0.0	-0.0	-0.0	-0.0	-0.0	-0.0	-0.9929633736610411	-2.2050681114196777	-780.2071533203125	-0.0	-0.0	-0.0	-0.0	-0.0	-0.0	243117.3125	60.64947509765625	-1952.3609619140625
0.4925	-0.0	-0.0	-0.0	-0.0	-0.0	-0.0	-1.3135443925857544	-2.8262939453125	-782.51611328125	-0.0	-0.0	-0.0	-0.0	-0.0	-0.0	243600.328125	184.2978363037109	-2012.0382080078125
0.493	-0.0	-0.0	-0.0	-0.0	-0.0	-0.0	-1.9516372680664065	-3.19988226890564	-786.7188720703125	-0.0	-0.0	-0.0	-0.0	-0.0	-0.0	244588.625	-37.80671691894531	-2227.00390625
0.4935	-0.0	-0.0	-0.0	-0.0	-0.0	-0.0	-1.6138365268707275	-3.288353443145752	-788.3705444335938	-0.0	-0.0	-0.0	-0.0	-0.0	-0.0	245493.46875	122.18331909179688	-2227.955810546875
0.494	-0.0	-0.0	-0.0	-0.0	-0.0	-0.0	-0.4908982515335083	-2.880751132965088	-790.2639770507812	-0.0	-0.0	-0.0	-0.0	-0.0	-0.0	246437.171875	267.6222839355469	-2070.6474609375
0.4945	-0.0	-0.0	-0.0	-0.0	-0.0	-0.0	-1.3815946578979492	-2.5068135261535645	-793.62158203125	-0.0	-0.0	-0.0	-0.0	-0.0	-0.0	247088.84375	310.833251953125	-2196.75830078125
